<svg xmlns="http://www.w3.org/2000/svg" width="16" height="12" fill="none"><path fill="#000" d="M9.722 11.272a.947.947 0 0 1-.288-.725c.009-.284.113-.525.313-.725l2.825-2.825H1.422a.968.968 0 0 1-.713-.288.967.967 0 0 1-.287-.712.97.97 0 0 1 .287-.713.97.97 0 0 1 .713-.287h11.15l-2.85-2.85c-.2-.2-.3-.438-.3-.713 0-.275.1-.512.3-.712.2-.2.438-.3.713-.3.274 0 .512.1.712.3l4.575 4.575c.1.1.17.208.213.325.041.117.062.242.062.375s-.02.258-.062.375a.883.883 0 0 1-.213.325l-4.6 4.6a.933.933 0 0 1-.687.275.974.974 0 0 1-.713-.3Z"/></svg>