<svg xmlns="http://www.w3.org/2000/svg" width="24" height="25" fill="none"><path fill="#000" stroke="#111" d="M21.083 3.05a12.6 12.6 0 0 0-2.087-.183 12.44 12.44 0 0 0-6.728 1.971L12 5.01l-.27-.17a12.44 12.44 0 0 0-6.729-1.923H5a12.6 12.6 0 0 0-2.087.183l18.17-.05Zm0 0a.5.5 0 0 1 .415.46v11.995a.5.5 0 0 1-.585.5l-.006-.001a11.399 11.399 0 0 0-8.589 2.083h-.07l-.093.039a.41.41 0 0 1-.315 0l-.092-.039h-.072a11.399 11.399 0 0 0-8.594-1.973.5.5 0 0 1-.584-.5V3.607m18.585-.557-18.585.557m0 0V3.6m0 .007V3.6m0 0a.5.5 0 0 1 .415-.5l-.415.5Zm8.267 12.69.733.385V5.898l-.225-.148a11.36 11.36 0 0 0-6.261-1.883 9.187 9.187 0 0 0-1.043.001l-.471.027v10.972h1.5a12.37 12.37 0 0 1 5.767 1.423Zm9.233-1.383h.5V3.895l-.472-.027a9.186 9.186 0 0 0-1.042 0 11.36 11.36 0 0 0-6.262 1.882l-.224.148v10.817l.732-.385a12.37 12.37 0 0 1 5.767-1.423h1.002Zm-.5-.5h-.5l1-10.04v10.04h-.5Zm-7.77 6.431.27.173.27-.173a12.44 12.44 0 0 1 6.728-1.97 12.6 12.6 0 0 1 2.087.182l.006.001a.498.498 0 0 1 .416.568.5.5 0 0 1-.583.387l-.01-.002a11.4 11.4 0 0 0-8.626 1.997.5.5 0 0 1-.577 0 11.401 11.401 0 0 0-8.627-1.997l-.009.002a.5.5 0 0 1-.583-.387.5.5 0 0 1 .416-.568l.007-.001a12.6 12.6 0 0 1 2.086-.183 12.44 12.44 0 0 1 6.729 1.971Z"/></svg>