<svg xmlns="http://www.w3.org/2000/svg" width="519" height="157" fill="none"><circle cx=".858" cy="155.284" r=".858" fill="#22222A"/><circle cx="9.436" cy="146.705" r=".858" fill="#22222A"/><circle cx="18.015" cy="146.705" r=".858" fill="#22222A"/><circle cx="18.015" cy="138.126" r=".858" fill="#22222A"/><circle cx="35.172" cy="129.546" r=".858" fill="#22222A"/><circle cx="43.75" cy="129.546" r=".858" fill="#22222A"/><circle cx="69.486" cy="146.705" r=".858" fill="#22222A"/><circle cx="69.486" cy="155.284" r=".858" fill="#22222A"/><circle cx="78.922" cy="155.284" r=".858" fill="#22222A"/><circle cx="78.065" cy="138.126" r=".858" fill="#22222A"/><circle cx="86.643" cy="138.126" r=".858" fill="#22222A"/><circle cx="95.221" cy="138.126" r=".858" fill="#22222A"/><circle cx="95.221" cy="129.546" r=".858" fill="#22222A"/><circle cx="103.8" cy="146.705" r=".858" fill="#22222A"/><circle cx="112.378" cy="138.126" r=".858" fill="#2D2D39"/><circle cx="120.957" cy="129.546" r=".858" fill="#22222A"/><circle cx="120.957" cy="120.967" r=".858" fill="#22222A"/><circle cx="112.378" cy="112.388" r=".858" fill="#22222A"/><circle cx="103.8" cy="103.809" r=".858" fill="#22222A"/><circle cx="95.221" cy="95.23" r=".858" fill="#22222A"/><circle cx="120.957" cy="103.809" r=".858" fill="#2D2D39"/><circle cx="120.957" cy="94.372" r=".858" fill="#22222A"/><circle cx="120.957" cy="86.65" r=".858" fill="#22222A"/><circle cx="129.536" cy="95.23" r=".858" fill="#22222A"/><circle cx="155.271" cy="129.546" r=".858" fill="#22222A"/><circle cx="163.85" cy="129.546" r=".858" fill="#22222A"/><circle cx="163.85" cy="138.126" r=".858" fill="#22222A"/><circle cx="163.85" cy="146.705" r=".858" fill="#22222A"/><circle cx="172.428" cy="146.705" r=".858" fill="#22222A"/><circle cx="172.428" cy="138.126" r=".858" fill="#22222A"/><circle cx="172.428" cy="120.967" r=".858" fill="#22222A"/><circle cx="172.428" cy="112.388" r=".858" fill="#22222A"/><circle cx="181.006" cy="120.967" r=".858" fill="#22222A"/><circle cx="189.585" cy="120.967" r=".858" fill="#22222A"/><circle cx="189.585" cy="103.809" r=".858" fill="#22222A"/><circle cx="198.164" cy="103.809" r=".858" fill="#22222A"/><circle cx="189.585" cy="95.23" r=".858" fill="#22222A"/><circle cx="172.428" cy="95.23" r=".858" fill="#22222A"/><circle cx="172.428" cy="86.65" r=".858" fill="#22222A"/><circle cx="189.585" cy="86.65" r=".858" fill="#22222A"/><circle cx="198.164" cy="78.071" r=".858" fill="#22222A"/><circle cx="198.164" cy="69.492" r=".858" fill="#22222A"/><circle cx="198.164" cy="60.913" r=".858" fill="#22222A"/><circle cx="206.743" cy="52.333" r=".858" fill="#22222A"/><circle cx="215.321" cy="52.333" r=".858" fill="#22222A"/><circle cx="206.743" cy="43.754" r=".858" fill="#22222A"/><circle cx="197.306" cy="35.175" r=".858" fill="#22222A"/><circle cx="198.164" cy="27.453" r=".858" fill="#22222A"/><circle cx="206.743" cy="18.016" r=".858" fill="#22222A"/><circle cx="206.743" cy="9.437" r=".858" fill="#22222A"/><circle cx="215.321" cy="18.016" r=".858" fill="#22222A"/><circle cx="215.321" cy="26.596" r=".858" fill="#22222A"/><circle cx="223.899" cy="26.596" r=".858" fill="#22222A"/><circle cx="223.899" cy="18.016" r=".858" fill="#22222A"/><circle cx="223.899" cy="52.333" r=".858" fill="#22222A"/><circle cx="232.478" cy="52.333" r=".858" fill="#22222A"/><circle cx="259.929" cy="35.175" r=".858" fill="#22222A"/><circle cx="268.507" cy="43.754" r=".858" fill="#22222A"/><circle cx="277.944" cy="43.754" r=".858" fill="#22222A"/><circle cx="302.822" cy="26.596" r=".858" fill="#22222A"/><circle cx="311.4" cy="35.175" r=".858" fill="#22222A"/><circle cx="319.979" cy="43.754" r=".858" fill="#22222A"/><circle cx="302.822" cy="52.333" r=".858" fill="#22222A"/><circle cx="294.243" cy="51.475" r=".858" fill="#22222A"/><circle cx="302.822" cy="60.913" r=".858" fill="#22222A"/><circle cx="311.4" cy="69.492" r=".858" fill="#22222A"/><circle cx="319.979" cy="69.492" r=".858" fill="#22222A"/><circle cx="328.557" cy="69.492" r=".858" fill="#22222A"/><circle cx="319.979" cy="78.071" r=".858" fill="#22222A"/><circle cx="320.836" cy="86.65" r=".858" fill="#22222A"/><circle cx="328.557" cy="86.65" r=".858" fill="#22222A"/><circle cx="337.135" cy="85.792" r=".858" fill="#2D2D39"/><circle cx="346.572" cy="86.65" r=".858" fill="#22222A"/><circle cx="354.292" cy="78.071" r=".858" fill="#22222A"/><circle cx="363.729" cy="78.071" r=".858" fill="#22222A"/><circle cx="363.729" cy="86.65" r=".858" fill="#22222A"/><circle cx="328.557" cy="95.23" r=".858" fill="#22222A"/><circle cx="328.557" cy="104.667" r=".858" fill="#22222A"/><circle cx="337.994" cy="120.967" r=".858" fill="#22222A"/><circle cx="328.557" cy="129.546" r=".858" fill="#22222A"/><circle cx="319.979" cy="129.546" r=".858" fill="#22222A"/><circle cx="319.979" cy="138.126" r=".858" fill="#22222A"/><circle cx="319.979" cy="147.563" r=".858" fill="#22222A"/><circle cx="345.714" cy="146.705" r=".858" fill="#22222A"/><circle cx="355.151" cy="146.705" r=".858" fill="#22222A"/><circle cx="354.292" cy="138.126" r=".858" fill="#22222A"/><circle cx="346.572" cy="138.126" r=".858" fill="#22222A"/><circle cx="355.151" cy="129.546" r=".858" fill="#22222A"/><circle cx="345.714" cy="120.967" r=".858" fill="#22222A"/><circle cx="363.729" cy="130.404" r=".858" fill="#22222A"/><circle cx="389.464" cy="95.23" r=".858" fill="#22222A"/><circle cx="397.185" cy="87.508" r=".858" fill="#22222A"/><circle cx="397.185" cy="96.087" r=".858" fill="#22222A"/><circle cx="397.185" cy="103.809" r=".858" fill="#22222A"/><circle cx="405.764" cy="112.388" r=".858" fill="#22222A"/><circle cx="415.2" cy="104.667" r=".858" fill="#22222A"/><circle cx="423.779" cy="95.23" r=".858" fill="#22222A"/><circle cx="423.779" cy="78.071" r=".858" fill="#22222A"/><circle cx="397.185" cy="120.967" r=".858" fill="#22222A"/><circle cx="398.043" cy="129.546" r=".858" fill="#22222A"/><circle cx="405.764" cy="138.984" r=".858" fill="#22222A"/><circle cx="422.92" cy="138.984" r=".858" fill="#22222A"/><circle cx="431.499" cy="138.126" r=".858" fill="#22222A"/><circle cx="440.078" cy="138.984" r=".858" fill="#22222A"/><circle cx="449.514" cy="147.563" r=".858" fill="#22222A"/><circle cx="450.372" cy="155.284" r=".858" fill="#22222A"/><circle cx="440.078" cy="155.284" r=".858" fill="#22222A"/><circle cx="475.249" cy="130.404" r=".858" fill="#22222A"/><circle cx="483.829" cy="129.546" r=".858" fill="#22222A"/><circle cx="500.127" cy="138.126" r=".858" fill="#22222A"/><circle cx="500.985" cy="146.705" r=".858" fill="#22222A"/><circle cx="510.421" cy="146.705" r=".858" fill="#22222A"/><circle cx="518.142" cy="155.284" r=".858" fill="#22222A"/><circle cx="423.779" cy="129.546" r=".858" fill="#22222A"/><circle cx="415.2" cy="147.563" r=".858" fill="#22222A"/><circle cx="414.342" cy="156.142" r=".858" fill="#22222A"/><circle cx="405.764" cy="155.284" r=".858" fill="#22222A"/><circle cx="398.043" cy="155.284" r=".858" fill="#22222A"/><circle cx="328.557" cy="52.333" r=".858" fill="#22222A"/><circle cx="337.994" cy="60.055" r=".858" fill="#22222A"/><circle cx="355.151" cy="61.77" r=".858" fill="#22222A"/><circle cx="354.292" cy="52.333" r=".858" fill="#22222A"/><circle cx="277.944" cy="35.175" r=".858" fill="#2D2D39"/><circle cx="277.944" cy="26.596" r=".858" fill="#22222A"/><circle cx="277.944" cy="18.016" r=".858" fill="#22222A"/><circle cx="285.664" cy="9.437" r=".858" fill="#22222A"/><circle cx="286.522" cy=".858" r=".858" fill="#22222A"/><circle cx="294.243" cy=".858" r=".858" fill="#22222A"/><circle cx="295.101" cy="9.437" r=".858" fill="#22222A"/><circle cx="303.679" cy=".858" r=".858" fill="#22222A"/><circle cx="311.4" cy="9.437" r=".858" fill="#22222A"/><circle cx="259.929" cy=".858" r=".858" fill="#22222A"/><circle cx="189.585" cy="69.492" r=".858" fill="#22222A"/><circle cx="172.428" cy="78.071" r=".858" fill="#22222A"/><circle cx="155.271" cy="78.071" r=".858" fill="#22222A"/><circle cx="163.85" cy="69.492" r=".858" fill="#22222A"/><circle cx="154.414" cy="52.333" r=".858" fill="#22222A"/><circle cx="163.85" cy="52.333" r=".858" fill="#22222A"/><circle cx="163.85" cy="43.754" r=".858" fill="#22222A"/><circle cx="163.85" cy="35.175" r=".858" fill="#22222A"/><circle cx="172.428" cy="43.754" r=".858" fill="#22222A"/><circle cx="181.006" cy="43.754" r=".858" fill="#22222A"/><circle cx="189.585" cy="129.546" r=".858" fill="#22222A"/><circle cx="198.164" cy="129.546" r=".858" fill="#22222A"/><circle cx="198.164" cy="138.126" r=".858" fill="#22222A"/><circle cx="198.164" cy="147.563" r=".858" fill="#22222A"/><circle cx="103.8" cy="155.284" r=".858" fill="#22222A"/><circle cx="112.378" cy="155.284" r=".858" fill="#22222A"/><circle cx="120.957" cy="155.284" r=".858" fill="#22222A"/></svg>